<?xml version="1.0" ?><svg viewBox="0 0 95.45 95.45" xmlns="http://www.w3.org/2000/svg"><title></title><g data-name="Layer 2" id="Layer_2"><g data-name="Layer 1" id="Layer_1-2"><path d="M95.45,47.72A47.72,47.72,0,1,0,47.72,95.45H95.45v-8H74.07A47.72,47.72,0,0,0,95.45,47.72ZM71.1,79.9a11.93,11.93,0,1,1,2.64-16.67A11.93,11.93,0,0,1,71.1,79.9Zm-.59-52.12a11.93,11.93,0,1,1-7.66,15A11.93,11.93,0,0,1,70.51,27.77ZM47.72,8A11.93,11.93,0,1,1,35.79,19.88,11.93,11.93,0,0,1,47.72,8ZM9.9,35.43a11.93,11.93,0,1,1,7.66,15A11.93,11.93,0,0,1,9.9,35.43ZM41,77.26a11.93,11.93,0,1,1-2.64-16.66A11.93,11.93,0,0,1,41,77.26Zm2.73-29.53a4,4,0,1,1,4,4A4,4,0,0,1,43.75,47.72Z"></path></g></g></svg>